<?xml version="1.0" standalone="no"?>
<!DOCTYPE svg PUBLIC "-//W3C//DTD SVG 20010904//EN"
 "http://www.w3.org/TR/2001/REC-SVG-20010904/DTD/svg10.dtd">
<svg version="1.0" xmlns="http://www.w3.org/2000/svg"
 width="400.000000pt" height="400.000000pt" viewBox="0 0 400.000000 400.000000"
 preserveAspectRatio="xMidYMid meet">
<metadata>
Created by potrace 1.14, written by Peter Selinger 2001-2017
</metadata>
<g transform="translate(0.000000,400.000000) scale(0.100000,-0.100000)"
fill="#000000" stroke="none">
<path d="M2170 3120 c-8 -5 -17 -7 -20 -5 -4 2 -7 -3 -7 -11 0 -9 4 -11 10 -5
5 5 21 6 38 1 33 -10 34 -10 50 -10 5 0 7 -5 3 -11 -4 -8 0 -8 15 0 17 10 22
9 27 -4 4 -8 14 -14 23 -13 9 2 15 -3 13 -10 -1 -8 2 -11 7 -8 9 6 27 -31 23
-47 -1 -5 2 -6 8 -2 5 3 10 1 10 -4 0 -6 -6 -11 -12 -12 -7 0 -2 -5 12 -11 24
-11 24 -12 -15 -17 -31 -5 -319 -6 -369 -2 -5 1 -2 9 5 18 12 14 12 16 -1 9
-12 -6 -11 -4 1 6 9 7 14 19 11 27 -2 8 0 11 5 8 6 -4 19 4 31 18 19 22 19 24
2 22 -11 -1 -16 -6 -12 -16 3 -9 1 -12 -6 -8 -12 8 -52 -43 -52 -68 0 -9 -4
-13 -10 -10 -5 3 -10 2 -10 -4 0 -6 -7 -8 -15 -5 -17 7 -70 -4 -62 -13 5 -5
89 -7 112 -3 6 1 13 2 16 2 36 -5 491 -3 496 2 3 3 0 7 -8 8 -8 0 -23 2 -34 3
-11 1 -26 3 -32 4 -7 0 -13 8 -13 16 0 8 -4 15 -9 15 -5 0 -12 11 -15 25 -4
14 -11 23 -16 20 -5 -3 -11 3 -15 14 -5 16 -21 28 -45 33 -3 1 -11 8 -19 15
-7 8 -20 12 -27 9 -8 -3 -14 -1 -14 5 0 6 -4 8 -9 4 -5 -3 -12 -1 -16 5 -4 6
-11 7 -17 4 -6 -4 -13 -2 -17 4 -4 7 -12 8 -21 2z"/>
<path d="M2096 3095 c-11 -8 -29 -15 -40 -16 -21 0 -21 -1 -1 -9 27 -12 37
-12 31 -1 -3 5 5 12 19 15 14 4 25 11 25 16 0 14 -12 12 -34 -5z"/>
<path d="M2454 2908 c-3 -5 -9 -6 -14 -3 -5 3 -11 1 -15 -4 -3 -6 5 -8 19 -5
19 3 24 0 24 -20 l0 -24 -137 0 c-75 0 -138 -1 -141 -2 -23 -6 -110 -3 -110 4
0 5 -6 3 -13 -3 -8 -6 -16 -9 -18 -7 -9 9 -69 14 -74 6 -3 -5 -19 -5 -35 0
-21 6 -30 5 -30 -3 0 -8 -3 -8 -12 1 -8 8 -8 15 3 29 13 16 12 17 -3 4 -20
-15 -24 -1 -5 18 10 10 8 11 -6 5 -11 -4 -16 -15 -14 -28 5 -38 17 -48 56 -44
l36 3 1 -698 c0 -432 -3 -697 -9 -697 -5 0 -7 -6 -4 -13 3 -8 -1 -14 -9 -14
-7 0 -11 4 -8 9 6 9 -12 10 -43 2 -20 -5 -23 -13 -23 -51 0 -26 4 -42 10 -38
6 3 7 -1 4 -9 -3 -9 -2 -16 2 -17 57 -4 79 -9 82 -18 5 -15 23 -14 20 1 -2 10
38 13 167 13 210 0 213 0 213 -31 0 -14 -5 -21 -11 -17 -6 3 -7 1 -3 -5 4 -7
1 -12 -8 -12 -9 0 -16 -7 -16 -15 0 -9 -12 -21 -27 -28 -16 -6 -31 -16 -35
-21 -4 -6 -39 -10 -77 -9 -39 1 -73 -2 -76 -8 -9 -14 127 -11 158 4 15 6 27
15 27 19 0 4 7 5 15 2 8 -4 15 -1 15 6 0 6 13 22 29 35 15 14 34 37 40 53 11
26 16 28 53 26 27 -2 37 1 28 6 -12 7 -11 10 3 16 11 4 14 11 10 18 -10 13
-10 37 -1 51 3 6 0 16 -8 23 -8 7 -14 10 -14 6 0 -3 -6 -1 -14 5 -9 8 -16 8
-20 2 -4 -6 -12 -8 -19 -5 -9 3 -12 162 -12 700 1 585 3 697 15 704 8 5 18 6
22 4 5 -3 17 -3 27 1 15 4 18 13 15 31 -3 15 0 31 5 38 7 8 4 12 -10 12 -11 0
-23 -4 -25 -8z m-159 -78 c6 -1 23 1 38 3 23 4 27 1 23 -12 -5 -13 -3 -12 8 2
16 20 33 6 19 -16 -10 -16 -384 -19 -395 -4 -18 27 6 32 150 30 81 -2 152 -3
157 -3z m-294 -67 c13 -16 12 -17 -3 -4 -10 7 -18 15 -18 17 0 8 8 3 21 -13z
m237 -10 c-12 -15 -32 -18 -24 -4 4 5 0 11 -6 14 -7 2 -1 4 14 3 20 -1 24 -4
16 -13z m136 1 c6 -15 4 -15 -11 -3 -10 7 -20 15 -22 16 -2 2 3 3 11 3 9 0 19
-7 22 -16z m-194 -14 c-20 -13 -33 -13 -25 0 3 6 14 10 23 10 15 0 15 -2 2
-10z m197 -1229 c10 -16 9 -20 -3 -25 -9 -3 -12 -2 -9 5 4 5 1 16 -5 24 -7 8
-8 15 -4 15 5 0 15 -9 21 -19z m-102 -59 c30 -6 31 -11 4 -21 -13 -5 -28 -5
-33 0 -5 5 -15 1 -23 -9 -8 -9 -12 -12 -9 -5 8 16 -14 22 -42 12 -16 -6 -21
-6 -17 2 4 6 0 9 -10 7 -10 -2 -20 2 -22 7 -2 6 19 10 52 9 31 -1 58 3 62 9 3
5 8 5 12 1 3 -5 15 -11 26 -12z m-250 -10 c-9 -9 -35 -11 -35 -3 0 14 12 20
26 14 8 -3 12 -8 9 -11z m425 -22 c0 -5 -5 -10 -11 -10 -5 0 -7 5 -4 10 3 6 8
10 11 10 2 0 4 -4 4 -10z m-416 -23 c6 7 86 9 86 3 0 -3 27 -5 60 -5 33 0 60
4 60 9 0 5 6 4 13 -1 6 -6 21 -9 32 -6 48 9 65 10 65 0 0 -5 5 -5 13 2 8 6 17
8 21 4 4 -4 22 -6 41 -5 l35 3 -1 -45 c-2 -38 -4 -42 -16 -30 -15 15 -38 19
-29 6 3 -5 -1 -9 -9 -9 -8 0 -15 4 -15 8 0 4 -7 10 -16 13 -8 3 -12 2 -9 -3 3
-5 1 -12 -5 -16 -5 -3 -10 -1 -10 5 0 6 -4 8 -10 5 -5 -3 -10 -2 -10 4 0 6 -7
8 -15 5 -8 -4 -12 -11 -8 -18 4 -7 1 -7 -7 1 -11 10 -17 10 -29 0 -12 -9 -13
-9 -7 1 4 6 3 12 -1 12 -5 0 -15 -6 -22 -12 -11 -10 -13 -10 -7 0 10 16 0 15
-30 -4 -17 -12 -24 -13 -22 -4 2 7 -3 15 -11 18 -9 3 -11 0 -6 -7 5 -9 2 -9
-13 0 -17 11 -24 10 -38 -2 -11 -9 -15 -9 -10 -1 4 7 1 12 -9 12 -10 0 -13 -5
-9 -12 4 -7 4 -10 -1 -6 -4 4 -15 2 -24 -5 -14 -11 -14 -10 -2 6 15 20 2 23
-18 5 -11 -11 -12 -10 -6 1 6 11 4 13 -11 7 -27 -11 -104 -14 -98 -4 3 5 10 5
16 2 6 -4 8 -2 5 4 -4 5 -17 8 -29 4 -17 -4 -20 -2 -15 12 4 9 3 15 -3 11 -5
-3 -8 3 -7 14 1 15 8 18 35 17 18 -1 36 2 38 6 2 3 17 3 33 -2 16 -4 32 -6 35
-3z m116 -71 c0 -3 -4 -8 -10 -11 -5 -3 -10 -1 -10 4 0 6 5 11 10 11 6 0 10
-2 10 -4z"/>
<path d="M556 2807 c3 -10 9 -15 12 -12 3 3 0 11 -7 18 -10 9 -11 8 -5 -6z"/>
<path d="M1316 2807 c3 -10 9 -15 12 -12 3 3 0 11 -7 18 -10 9 -11 8 -5 -6z"/>
<path d="M455 2800 c3 -5 8 -10 11 -10 2 0 4 5 4 10 0 6 -5 10 -11 10 -5 0 -7
-4 -4 -10z"/>
<path d="M614 2802 c4 -3 14 -7 22 -8 9 -1 13 0 10 4 -4 3 -14 7 -22 8 -9 1
-13 0 -10 -4z"/>
<path d="M1595 2800 c-3 -5 -1 -10 4 -10 6 0 11 5 11 10 0 6 -2 10 -4 10 -3 0
-8 -4 -11 -10z"/>
<path d="M2957 2793 c-4 -3 -2 -12 5 -20 6 -7 8 -16 4 -20 -3 -4 -13 2 -20 13
-14 18 -15 18 -21 2 -9 -23 -26 -13 -19 10 5 15 4 15 -6 -1 -10 -15 -14 -16
-28 -5 -10 8 -13 9 -9 1 4 -6 3 -14 -3 -18 -5 -3 -10 -1 -10 5 0 7 -6 8 -18 1
-13 -7 -23 -6 -30 1 -9 9 -12 8 -12 -6 0 -10 -4 -14 -12 -10 -7 5 -8 3 -2 -7
8 -14 10 -18 13 -38 0 -5 15 -12 31 -16 17 -4 30 -11 30 -16 0 -6 -4 -7 -10
-4 -5 3 -10 2 -10 -4 0 -5 9 -9 19 -8 11 0 17 5 14 10 -3 5 14 -1 37 -13 28
-14 40 -26 36 -36 -17 -41 -16 -46 3 -19 11 17 21 25 21 19 0 -6 -3 -14 -7
-18 -4 -3 -8 -12 -9 -19 -1 -7 -6 -21 -10 -32 -7 -18 -6 -18 9 -7 15 12 15 11
7 -19 -6 -19 -7 -42 -4 -53 4 -12 2 -16 -5 -12 -7 5 -9 1 -5 -8 3 -9 11 -13
18 -9 6 3 2 -4 -9 -17 -11 -13 -15 -20 -9 -17 7 4 12 -3 12 -18 0 -14 -4 -23
-8 -20 -4 3 -14 -3 -21 -13 -12 -15 -12 -16 2 -5 16 13 29 8 29 -9 0 -5 -4 -6
-10 -3 -6 4 -7 -1 -3 -11 4 -12 3 -15 -5 -10 -8 5 -10 2 -6 -8 3 -9 11 -13 17
-9 6 4 8 0 4 -9 -3 -9 0 -21 6 -28 9 -10 9 -11 0 -6 -7 4 -13 2 -13 -4 0 -6
-6 -8 -12 -5 -7 4 -5 0 5 -8 20 -16 23 -32 5 -21 -7 4 -4 -3 7 -16 11 -13 16
-21 10 -18 -5 3 -19 2 -30 -3 -19 -7 -19 -8 1 -8 16 -1 22 -7 22 -26 0 -13 -4
-23 -8 -20 -4 3 -14 -3 -21 -13 -12 -15 -12 -16 2 -5 16 13 29 8 29 -9 0 -5
-4 -7 -9 -4 -5 4 -7 -3 -4 -14 3 -11 9 -18 12 -15 4 2 8 -2 8 -10 0 -8 -4 -12
-8 -10 -9 6 -17 -16 -12 -33 3 -6 10 -9 16 -6 9 5 9 4 0 -6 -6 -7 -9 -19 -6
-28 4 -9 2 -13 -4 -9 -6 4 -17 -1 -24 -11 -12 -15 -12 -16 2 -5 16 13 29 8 29
-9 0 -5 -4 -6 -10 -3 -6 4 -7 -1 -3 -11 4 -12 3 -15 -5 -10 -8 5 -10 2 -6 -8
3 -9 11 -13 17 -9 6 4 8 0 4 -9 -3 -9 0 -21 6 -28 9 -10 9 -11 -2 -5 -11 6
-13 2 -7 -19 4 -18 3 -25 -3 -21 -7 3 -8 0 -5 -9 3 -9 11 -13 18 -9 6 3 2 -4
-9 -17 -11 -13 -14 -20 -6 -15 10 6 12 2 6 -15 -5 -17 -4 -21 5 -15 9 5 11 4
6 -4 -4 -6 -11 -9 -16 -6 -4 3 -14 -3 -21 -13 -13 -15 -12 -16 3 -4 12 10 18
10 24 1 4 -7 0 -17 -10 -24 -14 -11 -15 -13 -1 -18 9 -4 13 -15 11 -29 -3 -13
-5 -26 -5 -30 -1 -5 -6 -8 -12 -8 -5 0 -8 4 -5 9 3 5 0 11 -7 14 -10 4 -13 -2
-10 -17 3 -16 -2 -25 -21 -34 -19 -8 -27 -8 -32 0 -5 7 -3 8 6 3 9 -5 11 -4 6
4 -4 6 -12 9 -17 5 -5 -3 -7 -9 -4 -14 3 -5 1 -11 -5 -15 -5 -3 -10 -2 -10 4
0 6 -10 0 -23 -12 -13 -12 -22 -25 -20 -29 2 -5 -2 -8 -9 -8 -10 0 -10 -2 1
-9 7 -5 11 -13 7 -19 -7 -12 13 -10 33 2 9 6 12 5 7 -2 -4 -8 5 -10 29 -8 26
2 35 -2 36 -13 0 -10 4 -6 10 8 7 18 12 21 23 12 15 -13 216 -11 216 2 0 5 8
1 17 -9 11 -11 18 -13 21 -5 2 6 8 11 13 11 6 0 7 -4 4 -10 -3 -6 1 -7 9 -4 9
3 16 11 16 18 0 6 5 4 10 -4 7 -11 10 -11 10 -2 0 7 5 10 12 6 7 -5 5 -11 -7
-21 -11 -7 -14 -13 -9 -13 20 0 34 25 34 58 0 19 4 31 10 27 6 -3 10 -2 10 3
0 5 -14 9 -31 10 -18 0 -37 6 -43 13 -8 9 -8 10 3 4 9 -5 12 -4 7 3 -4 6 -13
9 -21 5 -8 -3 -15 0 -15 6 0 6 -5 11 -11 11 -5 0 -7 -5 -3 -12 5 -7 3 -8 -6
-3 -10 6 -9 11 5 22 22 15 12 17 -15 3 -25 -13 -33 1 -35 62 -1 34 2 48 10 44
6 -2 12 2 12 10 0 8 -6 13 -13 10 -19 -7 -25 21 -9 38 17 17 20 30 5 21 -11
-7 -13 4 -11 50 1 17 3 55 4 86 1 39 5 55 14 52 6 -3 9 -12 6 -21 -4 -14 -3
-15 6 -2 7 11 6 19 -5 31 -12 13 -12 19 -3 25 8 4 10 3 5 -4 -4 -7 -1 -12 8
-12 9 0 16 5 16 11 0 8 6 7 17 -2 11 -10 14 -10 9 -1 -4 6 -3 12 2 12 6 0 13
-7 16 -16 6 -15 8 -15 24 0 15 12 21 13 32 3 10 -9 11 -9 6 1 -4 6 -3 12 3 12
5 0 12 -8 14 -17 4 -17 5 -17 6 0 0 10 6 15 11 12 6 -4 8 -12 4 -18 -3 -7 1
-4 9 6 16 20 32 23 21 5 -6 -10 -5 -10 7 -1 12 10 18 10 29 0 10 -10 11 -9 5
2 -6 11 -4 13 8 8 10 -4 17 -1 17 6 0 7 8 3 16 -8 16 -20 16 -20 10 2 -6 18
-4 21 13 18 11 -2 23 0 26 5 3 4 19 7 36 6 21 -2 35 4 45 18 8 11 15 17 15 13
1 -4 2 -11 3 -16 0 -5 4 -13 8 -16 4 -4 5 5 2 20 -4 21 0 28 16 32 11 3 18 9
15 13 -3 5 -1 11 4 14 5 4 13 1 17 -5 5 -8 3 -9 -6 -4 -9 6 -11 4 -6 -4 12
-19 24 1 28 45 1 6 8 11 16 10 8 0 17 6 19 14 4 13 3 13 -6 0 -8 -11 -11 -12
-11 -2 0 8 9 16 20 19 11 3 20 10 20 15 0 5 -6 6 -12 3 -7 -4 -3 2 10 12 17
14 20 21 11 30 -10 10 -7 15 12 22 13 5 19 10 12 10 -13 1 -13 111 0 111 4 0
5 -5 1 -12 -4 -6 -3 -8 3 -5 11 7 10 43 -2 54 -4 5 -5 3 -1 -4 3 -6 3 -14 -1
-16 -13 -8 -12 107 1 115 6 5 0 8 -14 8 l-25 1 24 13 c20 11 21 14 7 19 -10 4
-15 3 -11 -3 3 -6 2 -10 -3 -10 -5 0 -13 10 -17 23 -4 12 -8 25 -10 30 -1 4
-3 14 -4 23 0 8 -5 12 -11 9 -5 -3 -10 -2 -10 4 0 5 6 12 13 15 6 3 1 3 -12 0
-18 -5 -22 -3 -15 7 11 19 13 49 2 43 -5 -4 -7 -13 -4 -21 4 -9 1 -13 -6 -11
-7 3 -14 10 -14 16 -1 7 -3 15 -4 20 -1 4 -2 10 -2 13 1 3 -5 6 -13 6 -8 0
-12 -4 -9 -8 2 -4 0 -10 -6 -14 -5 -3 -11 -1 -11 4 -1 6 -2 17 -3 24 -1 13
-29 14 -60 2 -14 -6 -17 -5 -14 6 3 8 12 13 19 11 12 -3 12 -1 0 10 -11 10
-14 10 -18 1 -3 -7 -13 -13 -23 -13 -10 0 -21 6 -23 13 -4 8 -6 8 -6 -2 -1
-11 -5 -10 -17 5 -8 10 -13 14 -10 8 3 -7 -1 -15 -10 -18 -12 -5 -15 -2 -10
11 6 17 5 17 -7 1 -16 -20 -28 -14 -20 10 4 13 2 13 -9 -2 -12 -15 -18 -16
-36 -7 -25 13 -43 15 -22 1 8 -5 11 -12 7 -16 -4 -4 -15 0 -24 8 -10 8 -29 14
-43 13 -14 -1 -32 3 -40 9 -13 9 -13 9 -2 -5 10 -14 10 -18 -4 -23 -10 -4 -21
0 -29 10 -8 12 -14 14 -19 6 -10 -16 -29 -15 -20 1 6 10 4 10 -7 0 -20 -19
-33 -16 -18 5 12 15 12 16 -2 4 -9 -7 -25 -9 -35 -6 -19 7 -19 6 0 -8 16 -13
16 -15 2 -15 -9 0 -23 9 -32 19 -16 17 -18 17 -29 1 -11 -15 -17 -15 -39 -5
-15 7 -24 17 -21 22 7 11 2 13 -8 3z m93 -27 c0 -3 -4 -8 -10 -11 -5 -3 -10
-1 -10 4 0 6 5 11 10 11 6 0 10 -2 10 -4z m220 0 c0 -3 -4 -8 -10 -11 -5 -3
-10 -1 -10 4 0 6 5 11 10 11 6 0 10 -2 10 -4z m310 -32 c0 -8 -19 -13 -24 -6
-3 5 1 9 9 9 8 0 15 -2 15 -3z m45 -34 c3 -5 1 -10 -4 -10 -6 0 -11 5 -11 10
0 6 2 10 4 10 3 0 8 -4 11 -10z m-267 -71 c-6 -4 -20 -6 -30 -4 -10 2 -18 0
-18 -6 0 -5 14 -7 33 -3 49 10 78 6 117 -16 14 -8 29 -13 33 -12 5 1 6 -2 3
-6 -6 -11 28 -54 37 -46 3 3 8 0 13 -7 4 -8 3 -10 -4 -5 -7 4 -12 1 -12 -8 0
-9 6 -15 13 -13 13 2 13 -2 3 -46 -5 -20 -2 -29 9 -33 8 -3 12 -10 9 -16 -3
-5 -11 -5 -18 -1 -7 4 -3 0 7 -10 24 -21 15 -35 -10 -16 -16 12 -17 12 -6 -1
7 -9 12 -25 12 -35 -1 -11 2 -30 5 -43 3 -15 1 -20 -6 -16 -8 5 -9 1 -5 -10 5
-11 3 -15 -5 -10 -7 5 -9 2 -6 -7 3 -8 -1 -24 -9 -34 -13 -16 -14 -17 -10 -3
3 10 2 20 -4 23 -5 4 -8 3 -7 -2 2 -4 -4 -23 -11 -41 l-14 -34 -14 24 -13 23
4 -27 c4 -26 3 -27 -17 -16 -21 11 -21 10 -7 -7 8 -10 10 -16 3 -12 -6 4 -15
3 -18 -3 -4 -6 -16 -8 -27 -4 -15 4 -18 3 -13 -6 5 -9 4 -11 -4 -6 -6 4 -9 11
-6 16 7 11 -22 7 -32 -5 -4 -4 -2 -5 5 -1 6 4 12 2 12 -3 0 -6 -9 -11 -21 -11
-11 0 -18 4 -15 8 3 5 -2 9 -10 9 -8 0 -13 -6 -10 -14 5 -11 1 -11 -16 -2 -15
8 -17 13 -9 19 10 5 9 9 -2 13 -12 4 -14 0 -11 -17 4 -21 2 -22 -46 -16 -27 3
-54 3 -60 -2 -5 -4 -8 -5 -5 -1 3 3 -2 15 -12 25 -9 10 -13 18 -8 18 4 0 2 6
-4 14 -8 10 -9 16 -1 21 7 4 7 12 0 26 -13 24 -2 25 17 2 12 -16 13 -15 2 7
-19 37 -18 102 0 118 14 12 14 13 -1 8 -22 -6 -31 20 -13 38 17 17 20 30 5 21
-13 -8 -15 21 -6 105 2 19 -1 41 -6 48 -7 8 -7 12 0 12 6 0 9 9 7 20 -2 11 0
18 5 15 5 -3 11 -2 14 3 2 4 54 8 115 8 61 0 105 -3 99 -7z m212 -189 c0 -5
-4 -10 -10 -10 -5 0 -10 5 -10 10 0 6 5 10 10 10 6 0 10 -4 10 -10z m-29 -393
c-10 -9 -11 -8 -5 6 3 10 9 15 12 12 3 -3 0 -11 -7 -18z"/>
<path d="M3143 2618 c-12 -20 -14 -46 -3 -53 6 -4 10 -3 9 2 -3 19 2 34 10 28
5 -3 13 -1 16 5 4 6 3 10 -2 9 -20 -3 -27 2 -13 11 9 6 10 10 3 10 -6 0 -15
-6 -20 -12z"/>
<path d="M3191 2608 c8 -15 13 -17 25 -7 8 6 14 14 14 16 0 3 -8 -1 -17 -8
-14 -12 -16 -12 -11 2 4 9 1 16 -7 16 -11 0 -11 -5 -4 -19z"/>
<path d="M3375 2611 c-3 -5 -2 -12 3 -15 5 -3 9 1 9 9 0 17 -3 19 -12 6z"/>
<path d="M3454 2579 c-4 -7 -3 -9 4 -5 5 3 13 0 15 -6 4 -9 6 -10 6 -1 1 17
-16 25 -25 12z"/>
<path d="M3135 2540 c-3 -5 -1 -10 4 -10 6 0 11 5 11 10 0 6 -2 10 -4 10 -3 0
-8 -4 -11 -10z"/>
<path d="M3130 2495 c-11 -13 -10 -14 4 -9 9 3 16 10 16 15 0 13 -6 11 -20 -6z"/>
<path d="M3526 2477 c3 -10 9 -15 12 -12 3 3 0 11 -7 18 -10 9 -11 8 -5 -6z"/>
<path d="M3127 2457 c-3 -8 1 -14 8 -14 7 0 11 6 8 14 -3 7 -6 13 -8 13 -2 0
-5 -6 -8 -13z"/>
<path d="M3125 2390 c-3 -6 1 -7 9 -4 18 7 21 14 7 14 -6 0 -13 -4 -16 -10z"/>
<path d="M3135 2329 c-4 -6 -5 -12 -2 -15 2 -3 7 2 10 11 7 17 1 20 -8 4z"/>
<path d="M3521 2301 c-8 -5 -9 -11 -3 -15 5 -3 12 1 16 9 6 17 6 18 -13 6z"/>
<path d="M3147 2193 c6 -16 5 -17 -13 -3 -17 14 -18 13 -7 -1 7 -9 11 -18 8
-21 -3 -3 1 -11 9 -17 10 -8 16 -9 21 -1 4 6 3 9 -2 8 -4 -2 -9 2 -9 7 -1 6 2
9 7 7 6 -1 5 7 -1 18 -13 25 -22 26 -13 3z"/>
<path d="M3377 2183 c-9 -8 12 -33 27 -33 6 0 3 5 -7 11 -9 6 -15 14 -12 20 7
10 2 12 -8 2z"/>
<path d="M3188 2143 c7 -3 16 -2 19 1 4 3 -2 6 -13 5 -11 0 -14 -3 -6 -6z"/>
<path d="M489 2783 c-1 -5 -1 -11 -1 -14 2 -14 -38 -16 -49 -3 -6 8 -17 14
-23 14 -6 0 -4 -5 4 -11 12 -8 10 -9 -10 -7 -14 1 -31 -2 -39 -6 -10 -6 -12
-5 -7 2 9 16 -7 15 -22 0 -9 -9 -12 -9 -12 1 0 7 -5 9 -10 6 -6 -4 -8 -11 -5
-16 4 -5 1 -9 -6 -9 -7 0 4 -16 26 -35 21 -20 40 -33 43 -30 9 9 32 -17 25
-29 -4 -6 0 -6 9 2 13 10 17 10 21 -3 4 -9 13 -12 24 -9 15 5 15 4 3 -4 -9 -7
-18 -8 -26 -1 -8 7 -14 6 -19 -1 -4 -6 -1 -9 7 -8 7 2 12 -2 11 -8 -1 -7 6
-10 17 -7 14 4 20 0 20 -11 0 -9 -6 -13 -14 -10 -8 3 -16 1 -19 -3 -3 -5 6 -9
21 -9 24 1 27 -3 27 -31 0 -26 2 -30 15 -20 8 6 12 8 8 3 -4 -5 0 -23 8 -40
l15 -31 -21 25 -21 25 12 -25 c6 -13 21 -33 33 -43 12 -10 15 -16 9 -12 -18 9
-16 -3 2 -22 8 -8 13 -19 10 -24 -4 -5 -1 -9 5 -9 6 0 8 -5 3 -12 -13 -22 -12
-37 5 -50 13 -11 14 -11 7 2 -12 19 -16 46 -6 34 14 -17 31 -65 21 -59 -6 3
-7 -1 -4 -9 3 -9 10 -13 15 -10 5 3 9 2 8 -3 -1 -4 -1 -15 0 -23 1 -13 3 -13
12 0 9 12 10 12 5 -4 -4 -11 2 -33 13 -52 14 -23 17 -36 9 -40 -7 -4 -8 -3 -4
4 4 7 3 12 -2 12 -6 0 -12 -7 -16 -15 -3 -8 -2 -14 2 -14 4 1 16 1 27 0 17 -1
18 -3 5 -11 -12 -8 -12 -10 5 -11 l20 0 -20 -9 c-16 -7 -16 -9 -4 -9 9 -1 20
-8 23 -17 3 -8 2 -12 -4 -9 -19 11 -10 -8 12 -26 11 -11 18 -19 13 -19 -4 0
-3 -6 2 -12 6 -7 9 -21 7 -31 -2 -14 2 -17 14 -12 9 3 14 3 10 0 -3 -4 0 -22
8 -41 8 -19 11 -34 8 -34 -4 0 1 -9 11 -20 10 -11 15 -20 10 -20 -4 0 -1 -10
7 -22 8 -13 14 -35 14 -50 -1 -21 1 -24 11 -16 11 8 12 7 6 -8 -3 -10 -11 -22
-16 -25 -5 -3 -1 -9 8 -12 9 -4 13 -3 10 3 -3 6 -2 10 3 10 6 0 13 -7 16 -16
3 -8 2 -12 -3 -9 -5 3 -12 1 -16 -5 -3 -5 1 -10 10 -10 9 0 13 -4 10 -10 -3
-5 -1 -10 4 -10 6 0 11 -9 11 -20 0 -11 5 -20 10 -20 6 0 10 -11 10 -24 0 -14
-4 -28 -10 -31 -5 -3 -10 -11 -10 -18 0 -6 7 -2 15 9 13 16 16 17 24 4 8 -11
6 -16 -5 -20 -12 -5 -9 -9 12 -19 20 -9 24 -15 15 -20 -20 -13 -1 -20 59 -22
82 -2 124 0 117 8 -4 3 1 12 11 20 10 9 11 11 2 7 -12 -6 -13 -5 -3 7 11 14
13 19 13 40 0 8 4 8 13 1 10 -9 12 -4 9 22 -2 21 2 38 12 48 8 9 18 29 22 44
4 16 14 38 23 48 13 16 13 18 1 11 -12 -7 -11 -3 3 18 10 15 15 33 11 39 -5 8
-2 9 9 5 10 -3 17 -2 17 4 0 6 5 7 12 3 6 -4 8 -3 4 4 -3 6 2 15 11 21 10 6
14 11 9 11 -5 0 -18 -7 -28 -17 -17 -15 -18 -15 -18 0 0 10 3 17 8 17 4 0 21
12 37 26 29 24 29 24 3 8 -31 -18 -38 -9 -10 13 9 8 10 11 2 7 -10 -5 -8 4 7
29 15 25 18 37 10 41 -8 3 -8 5 1 5 8 1 10 6 6 14 -6 9 -5 9 7 0 11 -9 14 -7
16 13 4 46 6 54 15 54 5 0 6 5 3 10 -9 15 15 41 29 33 6 -4 5 1 -3 10 -10 13
-10 17 -1 17 7 0 10 7 7 14 -4 10 -1 13 9 9 7 -3 14 0 14 6 0 6 -6 11 -12 11
-9 0 -8 4 2 10 8 5 11 10 6 10 -5 0 -3 7 4 15 7 8 10 15 6 15 -4 0 0 14 9 30
9 17 21 30 28 30 8 0 7 4 -3 10 -11 7 -11 10 -2 10 7 0 11 4 8 8 -3 5 2 20 12
33 9 13 17 28 18 34 3 24 17 55 25 55 5 0 9 7 9 16 0 9 5 12 13 8 10 -6 10 -4
0 7 -17 17 -16 29 2 29 9 0 12 6 8 17 -4 11 -3 14 5 9 7 -4 12 -2 12 3 0 6 -6
11 -12 11 -9 0 -9 3 1 9 8 5 11 15 8 23 -3 8 1 15 9 15 7 0 10 -5 7 -10 -4 -6
-1 -7 8 -1 8 5 17 9 21 9 3 0 10 3 14 7 3 4 -3 6 -15 3 -14 -2 -21 1 -21 11 0
8 6 14 13 12 7 -2 14 2 15 7 1 6 -2 10 -7 10 -5 0 -13 5 -18 10 -4 6 -4 7 1 2
5 -4 20 3 33 15 13 12 23 17 23 11 0 -6 -6 -13 -12 -16 -10 -4 -10 -7 0 -18
11 -12 13 -12 10 1 -2 9 4 14 14 14 10 -1 16 2 13 6 -3 5 4 12 16 15 12 4 18
12 15 20 -3 9 0 12 8 9 7 -3 17 6 23 19 15 32 -4 57 -34 46 -13 -5 -25 -4 -28
1 -3 5 -13 6 -21 3 -9 -3 -20 0 -25 8 -5 8 -9 9 -9 3 0 -13 -201 -12 -235 0
-16 6 -17 6 -5 -3 13 -9 13 -11 0 -11 -9 0 -22 6 -29 13 -9 8 -12 8 -7 0 8
-15 -14 -23 -35 -12 -19 9 -36 -6 -34 -31 0 -8 -4 -18 -10 -22 -5 -4 0 -8 13
-8 12 0 21 -5 20 -11 -2 -6 7 -15 20 -20 13 -5 21 -5 18 -1 -3 5 1 9 8 9 8 0
11 -8 8 -19 -2 -10 -9 -15 -15 -11 -6 4 -7 1 -2 -7 6 -10 11 -9 22 5 12 18 13
18 13 -2 0 -12 4 -24 9 -28 6 -3 8 3 6 15 -2 11 1 22 6 26 5 3 9 2 8 -3 -1 -4
0 -10 1 -13 7 -19 7 -41 -1 -46 -5 -3 -6 -10 -3 -16 4 -7 -2 -8 -17 -3 -23 7
-24 7 -4 -9 20 -16 20 -16 -2 -22 -13 -3 -20 -10 -17 -15 3 -5 10 -7 15 -4 5
3 6 -1 3 -10 -4 -11 -10 -12 -18 -6 -9 7 -11 2 -8 -23 2 -21 -2 -39 -13 -49
-9 -10 -13 -17 -9 -17 3 0 1 -6 -5 -13 -6 -8 -7 -18 -3 -23 4 -4 -2 -2 -12 6
-18 14 -19 14 -7 -7 9 -18 9 -28 0 -45 -7 -13 -11 -25 -10 -28 1 -2 -2 -6 -8
-8 -6 -2 -11 1 -11 8 0 6 4 9 8 6 5 -3 9 2 9 10 0 13 -2 13 -15 0 -9 -9 -11
-19 -6 -28 12 -19 14 -39 3 -32 -8 5 -13 -9 -10 -28 0 -5 -7 -8 -17 -8 -9 0
-13 -4 -7 -8 14 -10 17 -32 4 -32 -5 0 -8 -4 -4 -9 8 -14 -14 -24 -28 -12 -9
7 -13 5 -13 -8 0 -13 6 -17 21 -13 20 4 20 4 0 -11 -11 -8 -23 -13 -27 -11 -4
2 -9 0 -12 -5 -7 -11 13 -9 32 2 7 5 12 4 12 -2 0 -6 -4 -11 -10 -11 -5 0 -10
-7 -10 -15 0 -8 -5 -15 -11 -15 -5 0 -7 6 -3 13 4 6 3 8 -1 4 -15 -13 -15 -39
0 -34 10 4 10 -1 -2 -24 -16 -32 -33 -47 -33 -28 0 7 -3 9 -6 6 -4 -4 -1 -14
7 -24 12 -15 12 -16 -3 -10 -15 5 -16 2 -8 -19 7 -18 7 -23 -1 -18 -8 4 -9 -1
-4 -17 7 -22 7 -23 -11 -9 -10 8 -16 10 -12 6 4 -5 3 -15 -4 -23 -9 -11 -7
-12 8 -7 17 5 17 4 4 -8 -8 -7 -16 -22 -18 -33 -5 -40 -9 -49 -20 -53 -7 -2
-10 -8 -7 -13 4 -5 -1 -6 -10 -3 -12 5 -13 10 -4 20 6 8 14 12 18 10 3 -2 7 9
7 25 2 30 -6 34 -10 6 -2 -17 -26 -41 -45 -45 -7 -1 -15 7 -18 18 -3 11 -10
20 -15 20 -5 0 -7 4 -3 9 3 5 0 13 -6 16 -5 4 -8 13 -5 20 2 7 -3 23 -12 36
-9 13 -17 28 -17 34 -1 5 -7 24 -15 40 -13 30 -16 38 -18 63 -1 7 -6 11 -10 8
-5 -3 -9 1 -9 9 0 8 4 12 8 9 4 -2 11 0 14 6 4 6 3 10 -2 9 -28 -5 -34 3 -30
36 3 19 1 32 -4 29 -5 -3 -6 -11 -2 -17 4 -7 1 -7 -9 1 -9 8 -14 20 -11 28 3
8 -1 14 -8 14 -7 0 -9 3 -6 6 4 4 13 2 20 -4 10 -9 14 -8 14 3 0 8 -4 12 -9 9
-4 -3 -8 0 -8 6 0 6 -3 9 -8 6 -4 -2 -12 7 -19 20 -12 27 -2 32 17 9 7 -8 17
-15 23 -15 5 0 -2 9 -16 20 -14 11 -30 20 -36 20 -6 0 -11 5 -11 11 0 5 4 7
10 4 6 -3 7 1 4 9 -3 9 -11 13 -16 10 -6 -4 -8 7 -5 30 3 20 1 33 -4 30 -5 -3
-6 -11 -3 -17 4 -7 3 -8 -1 -4 -5 4 -10 15 -11 24 -2 9 -10 20 -18 25 -9 5
-16 14 -16 21 0 8 3 8 8 2 4 -5 16 -17 26 -25 16 -12 15 -8 -5 20 -13 19 -28
38 -34 42 -6 5 -5 8 3 8 6 0 12 5 12 11 0 5 -4 7 -10 4 -9 -5 -12 1 -9 21 0 4
-4 10 -11 14 -6 4 -12 22 -13 41 -3 41 -14 62 -29 53 -7 -4 -8 -2 -4 4 4 6 13
9 20 6 8 -3 17 0 22 7 4 7 3 10 -4 6 -5 -4 -18 -4 -27 -1 -13 5 -8 11 22 29
21 13 41 21 45 19 5 -3 8 0 8 6 0 6 5 8 10 5 6 -3 10 2 11 12 0 10 3 13 6 6
10 -25 19 -12 19 26 -1 23 -5 37 -11 33 -5 -3 -18 -7 -27 -7 -13 -1 -15 2 -7
11 7 8 6 14 -2 20 -8 4 -9 3 -5 -4 6 -11 0 -14 -20 -11 -4 0 -11 -5 -15 -13
-7 -10 -9 -10 -9 0 0 7 -4 10 -10 7 -5 -3 -10 -1 -10 4 0 6 -5 11 -11 11 -5 0
-8 -4 -5 -9 9 -15 -43 -19 -55 -5 -8 10 -16 11 -29 4 -24 -13 -33 -13 -25 0 3
6 1 10 -4 10 -6 0 -11 -4 -11 -10 0 -14 -27 -13 -36 2 -5 8 -2 9 10 5 10 -4
15 -3 11 3 -7 12 -24 13 -26 3z m1161 -107 c0 -2 -7 -7 -16 -10 -8 -3 -12 -2
-9 4 6 10 25 14 25 6z m-970 -96 c0 -5 -2 -10 -4 -10 -3 0 -8 5 -11 10 -3 6
-1 10 4 10 6 0 11 -4 11 -10z m336 -802 c10 -12 13 -18 7 -14 -16 9 -17 -6 -1
-22 9 -9 9 -12 1 -12 -7 0 -15 9 -18 20 -4 11 -11 17 -17 14 -7 -4 -8 -2 -4 4
4 7 1 12 -6 12 -9 0 -9 3 2 10 8 5 15 10 16 10 0 0 9 -10 20 -22z"/>
<path d="M1405 2780 c-3 -5 -1 -10 4 -10 6 0 11 5 11 10 0 6 -2 10 -4 10 -3 0
-8 -4 -11 -10z"/>
<path d="M1507 2779 c7 -7 15 -10 18 -7 3 3 -2 9 -12 12 -14 6 -15 5 -6 -5z"/>
<path d="M1555 2780 c3 -5 8 -10 11 -10 2 0 4 5 4 10 0 6 -5 10 -11 10 -5 0
-7 -4 -4 -10z"/>
<path d="M2995 2780 c3 -5 8 -10 11 -10 2 0 4 5 4 10 0 6 -5 10 -11 10 -5 0
-7 -4 -4 -10z"/>
<path d="M450 2769 c0 -5 5 -7 10 -4 6 3 10 8 10 11 0 2 -4 4 -10 4 -5 0 -10
-5 -10 -11z"/>
<path d="M610 2769 c0 -5 5 -7 10 -4 6 3 10 8 10 11 0 2 -4 4 -10 4 -5 0 -10
-5 -10 -11z"/>
<path d="M307 2699 c7 -7 15 -10 18 -7 3 3 -2 9 -12 12 -14 6 -15 5 -6 -5z"/>
<path d="M353 2665 c0 -8 4 -15 9 -15 4 0 8 4 8 9 0 6 -4 12 -8 15 -5 3 -9 -1
-9 -9z"/>
<path d="M2874 2637 c-4 -7 -4 -9 1 -5 4 4 16 3 27 -3 11 -6 22 -9 24 -6 2 2
-7 9 -21 15 -18 9 -26 8 -31 -1z"/>
<path d="M2896 2607 c3 -10 9 -15 12 -12 3 3 0 11 -7 18 -10 9 -11 8 -5 -6z"/>
<path d="M707 2599 c7 -7 15 -10 18 -7 3 3 -2 9 -12 12 -14 6 -15 5 -6 -5z"/>
<path d="M1330 2596 c7 -7 13 -7 20 0 6 6 3 10 -10 10 -13 0 -16 -4 -10 -10z"/>
<path d="M3705 2601 c-6 -11 13 -26 22 -17 4 3 0 6 -8 6 -11 0 -11 2 1 10 9 6
10 10 3 10 -6 0 -14 -4 -18 -9z"/>
<path d="M2915 2511 c-3 -5 0 -13 6 -17 7 -4 9 -3 5 4 -3 5 0 13 6 15 9 4 10
6 1 6 -6 1 -14 -3 -18 -8z"/>
<path d="M1270 2479 c0 -5 5 -7 10 -4 6 3 10 8 10 11 0 2 -4 4 -10 4 -5 0 -10
-5 -10 -11z"/>
<path d="M1535 2480 c3 -5 8 -10 11 -10 2 0 4 5 4 10 0 6 -5 10 -11 10 -5 0
-7 -4 -4 -10z"/>
<path d="M1282 2454 c-7 -8 -8 -14 -3 -14 10 0 25 19 20 25 -2 1 -10 -3 -17
-11z"/>
<path d="M3747 2456 c-4 -10 -1 -13 8 -9 8 3 12 9 9 14 -7 12 -11 11 -17 -5z"/>
<path d="M750 2439 c0 -5 5 -7 10 -4 6 3 10 8 10 11 0 2 -4 4 -10 4 -5 0 -10
-5 -10 -11z"/>
<path d="M1255 2420 c-3 -5 -1 -10 4 -10 6 0 11 5 11 10 0 6 -2 10 -4 10 -3 0
-8 -4 -11 -10z"/>
<path d="M528 2393 c6 -2 9 -10 6 -15 -4 -7 -2 -8 5 -4 13 9 5 26 -12 25 -9 0
-8 -2 1 -6z"/>
<path d="M1230 2376 c0 -2 8 -10 18 -17 15 -13 16 -12 3 4 -13 16 -21 21 -21
13z"/>
<path d="M1450 2346 c0 -2 7 -7 16 -10 8 -3 12 -2 9 4 -6 10 -25 14 -25 6z"/>
<path d="M1435 2320 c-3 -5 -1 -10 4 -10 6 0 11 5 11 10 0 6 -2 10 -4 10 -3 0
-8 -4 -11 -10z"/>
<path d="M1195 2270 c-16 -17 -16 -20 -3 -15 9 4 19 13 22 21 7 19 2 18 -19
-6z"/>
<path d="M2910 2281 c0 -6 4 -13 10 -16 6 -3 7 1 4 9 -7 18 -14 21 -14 7z"/>
<path d="M1407 2255 c-4 -8 -3 -16 1 -19 4 -3 9 4 9 15 2 23 -3 25 -10 4z"/>
<path d="M3736 2247 c3 -10 9 -15 12 -12 3 3 0 11 -7 18 -10 9 -11 8 -5 -6z"/>
<path d="M601 2210 c7 -14 12 -28 11 -32 -1 -5 3 -8 8 -8 15 0 12 12 -11 40
l-20 25 12 -25z"/>
<path d="M1393 2223 c4 -3 1 -13 -6 -22 -11 -14 -10 -14 5 -2 16 12 16 31 1
31 -4 0 -3 -3 0 -7z"/>
<path d="M1177 2195 c-4 -8 -3 -16 1 -19 4 -3 9 4 9 15 2 23 -3 25 -10 4z"/>
<path d="M1330 2080 c0 -5 5 -10 10 -10 6 0 10 5 10 10 0 6 -4 10 -10 10 -5 0
-10 -4 -10 -10z"/>
<path d="M895 2071 c-3 -5 -2 -12 3 -15 5 -3 9 1 9 9 0 17 -3 19 -12 6z"/>
<path d="M2915 2060 c3 -5 8 -10 11 -10 2 0 4 5 4 10 0 6 -5 10 -11 10 -5 0
-7 -4 -4 -10z"/>
<path d="M895 2020 c3 -5 8 -10 11 -10 2 0 4 5 4 10 0 6 -5 10 -11 10 -5 0 -7
-4 -4 -10z"/>
<path d="M3488 2008 c2 -10 6 -18 7 -18 1 0 5 8 7 18 3 11 0 19 -7 19 -7 0
-10 -8 -7 -19z"/>
<path d="M1315 2000 c3 -5 8 -10 11 -10 2 0 4 5 4 10 0 6 -5 10 -11 10 -5 0
-7 -4 -4 -10z"/>
<path d="M695 1989 c-4 -6 -5 -12 -2 -15 2 -3 7 2 10 11 7 17 1 20 -8 4z"/>
<path d="M3170 1980 c0 -5 5 -10 11 -10 5 0 7 5 4 10 -3 6 -8 10 -11 10 -2 0
-4 -4 -4 -10z"/>
<path d="M711 1934 c6 -7 8 -18 4 -23 -3 -7 0 -8 9 -5 18 7 22 24 5 24 -5 0
-8 4 -5 8 3 5 -1 9 -9 9 -11 0 -12 -4 -4 -13z"/>
<path d="M950 1919 c0 -5 5 -7 10 -4 6 3 10 8 10 11 0 2 -4 4 -10 4 -5 0 -10
-5 -10 -11z"/>
<path d="M3135 1900 c-3 -5 -1 -10 4 -10 6 0 11 5 11 10 0 6 -2 10 -4 10 -3 0
-8 -4 -11 -10z"/>
<path d="M2910 1881 c0 -6 4 -13 10 -16 6 -3 7 1 4 9 -7 18 -14 21 -14 7z"/>
<path d="M735 1870 c-7 -11 22 -26 32 -16 4 3 -1 6 -11 6 -9 0 -14 5 -11 10 3
6 4 10 1 10 -3 0 -8 -5 -11 -10z"/>
<path d="M957 1869 c7 -7 15 -10 18 -7 3 3 -2 9 -12 12 -14 6 -15 5 -6 -5z"/>
<path d="M996 1861 c-3 -5 2 -15 12 -22 15 -12 16 -12 5 2 -7 9 -10 19 -6 22
3 4 4 7 0 7 -3 0 -8 -4 -11 -9z"/>
<path d="M3130 1855 c-11 -13 -10 -14 4 -9 9 3 16 10 16 15 0 13 -6 11 -20 -6z"/>
<path d="M976 1837 c3 -10 9 -15 12 -12 3 3 0 11 -7 18 -10 9 -11 8 -5 -6z"/>
<path d="M3127 1817 c-3 -8 1 -14 8 -14 7 0 11 6 8 14 -3 7 -6 13 -8 13 -2 0
-5 -6 -8 -13z"/>
<path d="M774 1795 c0 -14 4 -25 8 -25 4 0 7 9 5 20 -5 29 -13 33 -13 5z"/>
<path d="M2916 1783 c-6 -14 -5 -15 5 -6 7 7 10 15 7 18 -3 3 -9 -2 -12 -12z"/>
<path d="M3125 1750 c-3 -6 1 -7 9 -4 18 7 21 14 7 14 -6 0 -13 -4 -16 -10z"/>
<path d="M813 1655 c0 -8 4 -12 9 -9 5 3 6 10 3 15 -9 13 -12 11 -12 -6z"/>
<path d="M3150 1650 c-9 -6 -10 -10 -3 -10 6 0 15 5 18 10 8 12 4 12 -15 0z"/>
<path d="M1154 1636 c-10 -8 -17 -16 -14 -19 3 -2 14 4 24 14 23 22 18 25 -10
5z"/>
<path d="M2875 1608 c1 -13 6 -21 11 -19 10 3 7 21 -5 34 -4 4 -7 -3 -6 -15z"/>
<path d="M3138 1623 c6 -3 10 -9 6 -14 -8 -14 2 -11 14 4 8 10 6 13 -11 14
-12 0 -16 -1 -9 -4z"/>
<path d="M830 1615 c0 -2 6 -8 13 -14 10 -8 14 -7 14 2 0 8 -6 14 -14 14 -7 0
-13 -1 -13 -2z"/>
<path d="M875 1511 c-3 -5 -2 -12 3 -15 5 -3 9 1 9 9 0 17 -3 19 -12 6z"/>
<path d="M955 1470 c-4 -6 1 -7 11 -3 13 5 15 3 9 -7 -5 -9 -4 -11 4 -6 6 4 9
12 6 17 -8 12 -22 12 -30 -1z"/>
<path d="M1010 1471 c0 -6 4 -13 10 -16 6 -3 7 1 4 9 -7 18 -14 21 -14 7z"/>
<path d="M2913 1467 c0 -7 9 -14 20 -14 11 -1 18 -1 16 0 -2 2 -11 8 -20 15
-12 9 -16 9 -16 -1z"/>
<path d="M3034 1454 c1 -8 4 -15 7 -16 2 -2 3 -1 2 1 -2 2 2 9 7 16 7 8 5 12
-4 12 -8 0 -13 -6 -12 -13z"/>
<path d="M3090 1465 c0 -5 5 -17 10 -25 5 -8 10 -10 10 -5 0 6 -5 17 -10 25
-5 8 -10 11 -10 5z"/>
<path d="M3120 1460 c8 -5 20 -10 25 -10 6 0 3 5 -5 10 -8 5 -19 10 -25 10 -5
0 -3 -5 5 -10z"/>
<path d="M1987 1251 c2 -10 16 -24 29 -31 13 -8 24 -17 24 -22 0 -4 7 -8 16
-8 8 0 12 -4 9 -10 -4 -6 5 -10 19 -10 35 0 33 6 -10 26 -20 9 -45 30 -57 46
-24 32 -37 37 -30 9z"/>
</g>
</svg>
